<?xml version="1.0" encoding="UTF-8" standalone="no"?>
<svg width="32px" height="32px" viewBox="0 0 32 32" version="1.1" xmlns="http://www.w3.org/2000/svg" xmlns:xlink="http://www.w3.org/1999/xlink">
    <!-- Generator: Sketch 44.1 (41455) - http://www.bohemiancoding.com/sketch -->
    <title>Minus</title>
    <desc>Created with Sketch.</desc>
    <defs></defs>
    <g id="Page-2-Copy" stroke="none" stroke-width="1" fill="none" fill-rule="evenodd">
        <g id="22" stroke="#979797">
            <path d="M16,8.0546875 C15.4477153,8.0546875 15,8.50347894 15,9.04653995 L15,21.543335 L15,23.0007803 C15,23.5526341 15.4438648,24 16,24 L16,24 C16.5522847,24 17,23.5568889 17,23.0025493 L17,9.05213821 C17,8.50126139 16.5561352,8.0546875 16,8.0546875 L16,8.0546875 Z" id="Rectangle-348" stroke="none" fill="#2A2630" fill-rule="evenodd" transform="translate(16.000000, 16.000000) rotate(-270.000000) translate(-16.000000, -16.000000) "></path>
            <path d="M32,16 C32,24.836556 24.836556,32 16,32 C7.163444,32 0,24.836556 0,16 C0,7.163444 7.163444,0 16,0 C24.836556,0 32,7.163444 32,16 Z M2,16 C2,23.7319865 8.2680135,30 16,30 C23.7319865,30 30,23.7319865 30,16 C30,8.2680135 23.7319865,2 16,2 C8.2680135,2 2,8.2680135 2,16 Z" id="Oval-1" stroke="none" fill="#95909E" fill-rule="nonzero"></path>
        </g>
    </g>
</svg>