<?xml version="1.0" encoding="UTF-8" standalone="no"?>
<svg width="32px" height="32px" viewBox="0 0 32 32" version="1.1" xmlns="http://www.w3.org/2000/svg" xmlns:xlink="http://www.w3.org/1999/xlink">
    <!-- Generator: Sketch 44.1 (41455) - http://www.bohemiancoding.com/sketch -->
    <title>Plus</title>
    <desc>Created with Sketch.</desc>
    <defs></defs>
    <g id="Page-2-Copy" stroke="none" stroke-width="1" fill="none" fill-rule="evenodd">
        <g id="21" stroke="#979797">
            <path d="M17,17 L22.9478618,17 C23.4987386,17 23.9453125,16.5561352 23.9453125,16 C23.9453125,15.4477153 23.4965211,15 22.95346,15 L17,15 L17,10.456665 L17,8.99921972 C17,8.4473659 16.5561352,8 16,8 C15.4477153,8 15,8.44311113 15,8.99745071 L15,15 L10.456665,15 L8.99921972,15 C8.4473659,15 8,15.4438648 8,16 C8,16.5522847 8.44311113,17 8.99745071,17 L15,17 L15,22.9478618 C15,23.4987386 15.4438648,23.9453125 16,23.9453125 C16.5522847,23.9453125 17,23.4965211 17,22.95346 L17,17 Z" id="Rectangle-348" stroke="none" fill="#2A2630" fill-rule="evenodd" transform="translate(16.000000, 16.000000) rotate(-180.000000) translate(-16.000000, -16.000000) "></path>
            <path d="M32,16 C32,24.836556 24.836556,32 16,32 C7.163444,32 0,24.836556 0,16 C0,7.163444 7.163444,0 16,0 C24.836556,0 32,7.163444 32,16 Z M2,16 C2,23.7319865 8.2680135,30 16,30 C23.7319865,30 30,23.7319865 30,16 C30,8.2680135 23.7319865,2 16,2 C8.2680135,2 2,8.2680135 2,16 Z" id="Oval-1" stroke="none" fill="#95909E" fill-rule="nonzero"></path>
        </g>
    </g>
</svg>